<?xml version="1.0" encoding="UTF-8"?>
<!DOCTYPE svg PUBLIC "-//W3C//DTD SVG 1.1//EN" "http://www.w3.org/Graphics/SVG/1.1/DTD/svg11.dtd">
<!-- Creator: CorelDRAW 2017 -->
<svg xmlns="http://www.w3.org/2000/svg" xml:space="preserve" width="6.66666in" height="1.66666in" version="1.1" style="shape-rendering:geometricPrecision; text-rendering:geometricPrecision; image-rendering:optimizeQuality; fill-rule:evenodd; clip-rule:evenodd"
viewBox="0 0 6667 1667"
 xmlns:xlink="http://www.w3.org/1999/xlink">
 <defs>
  <style type="text/css">
   <![CDATA[
    .str1 {stroke:#231F1F;stroke-width:14;stroke-miterlimit:4}
    .str2 {stroke:black;stroke-width:7;stroke-miterlimit:10}
    .str0 {stroke:#231F1F;stroke-width:14;stroke-linecap:round;stroke-linejoin:round;stroke-miterlimit:4}
    .fil5 {fill:none;fill-rule:nonzero}
    .fil1 {fill:#FEFEFE;fill-rule:nonzero}
    .fil3 {fill:#FEFEFE;fill-rule:nonzero}
    .fil0 {fill:#373435;fill-rule:nonzero}
    .fil11 {fill:black;fill-rule:nonzero}
    .fil6 {fill:#282828;fill-rule:nonzero}
    .fil10 {fill:#373435;fill-rule:nonzero}
    .fil8 {fill:#373535;fill-rule:nonzero}
    .fil7 {fill:#DBD735;fill-rule:nonzero}
    .fil4 {fill:#E6E6E6;fill-rule:nonzero}
    .fil9 {fill:#FEFEFE;fill-rule:nonzero}
    .fil2 {fill:white;fill-rule:nonzero}
   ]]>
  </style>
 </defs>
 <g id="Layer_x0020_1">
  <metadata id="CorelCorpID_0Corel-Layer"/>
  <g id="_1738486015616">
   <path class="fil0 str0" d="M6001 1086c-86,-28 -25,-205 -71,-275 -122,12 -76,194 -130,275 -68,-55 -31,-215 -47,-322 35,1 66,4 59,48 35,-17 44,-58 94,-60 113,19 125,248 94,334z"/>
   <path class="fil0 str0" d="M6093 1039c34,-25 129,51 153,-24 -34,-66 -159,-37 -165,-131 25,-75 148,-143 212,-72 -34,29 -160,5 -165,96 50,51 165,25 177,96 15,92 -186,140 -212,36z"/>
   <path class="fil0 str0" d="M3162 991c-5,15 -15,25 -35,24 -51,-17 -22,-40 -35,-96 -40,51 -50,133 -153,119 -37,-48 -56,-193 -12,-251 76,15 -8,142 35,203 78,-28 77,-137 106,-215 95,8 38,169 94,215z"/>
   <path class="fil0 str0" d="M5637 706c-52,13 -80,-35 -59,-60 33,7 66,13 59,60z"/>
   <path class="fil0 str0" d="M5649 1028c-101,6 -44,-146 -59,-227 106,-18 46,190 59,227z"/>
   <path class="fil0 str0" d="M5531 966c-5,15 -15,25 -35,24 -51,-17 -22,-40 -35,-96 -40,51 -50,133 -153,119 -37,-48 -56,-193 -12,-251 76,15 -8,142 35,203 78,-28 77,-137 106,-215 95,8 38,169 94,215z"/>
  </g>
  <path class="fil0 str1" d="M1599 1006c-319,245 -514,-533 -88,-490 -27,65 -106,49 -151,113 -86,125 -31,341 100,377 49,4 99,-32 138,0z"/>
  <path class="fil0 str1" d="M4009 839c-8,67 17,167 -13,213 -79,6 -49,-110 -50,-176 -2,-116 3,-237 13,-339 301,-146 384,336 50,301z"/>
  <path class="fil1 str1" d="M4009 776c6,-61 -13,-147 13,-188 231,-91 147,261 -13,188z"/>
  <path class="fil0 str0" d="M4869 1084c-86,-28 -25,-205 -71,-275 -122,12 -76,194 -130,275 -68,-55 -31,-215 -47,-322 35,1 66,4 59,48 35,-17 44,-58 94,-60 113,19 125,248 94,334z"/>
  <path class="fil0 str0" d="M2773 844c29,81 3,164 -59,179 -161,39 -206,-241 -59,-263 39,-6 89,4 118,84z"/>
  <path class="fil0 str0" d="M4543 1008c-232,255 -386,-282 -188,-298 134,-11 90,245 -24,227 -10,105 156,33 212,72z"/>
  <path class="fil0 str0" d="M2328 813c-43,57 -203,-54 -236,48 -18,79 50,127 0,167 -63,-35 -51,-147 -71,-227 76,-57 247,-70 306,12z"/>
  <path class="fil0 str0" d="M3238 989c34,-25 129,51 153,-24 -34,-66 -159,-37 -165,-131 25,-75 148,-143 212,-72 -34,29 -160,5 -165,96 50,51 165,25 177,96 15,92 -186,140 -212,36z"/>
  <path class="fil0 str0" d="M5075 1355c-75,-10 -196,-29 -153,-119 82,-2 26,63 94,72 62,-52 72,-158 71,-275 -178,26 -232,-295 24,-263 58,151 59,477 -35,585z"/>
  <path class="fil0 str0" d="M1933 998c-5,15 -15,25 -35,24 -51,-17 -22,-40 -35,-96 -40,51 -50,133 -153,119 -37,-48 -56,-193 -12,-251 76,15 -8,142 35,203 78,-28 77,-137 106,-215 95,8 38,169 94,215z"/>
  <path class="fil0 str0" d="M2466 705c-52,13 -80,-35 -59,-60 33,7 66,13 59,60z"/>
  <path class="fil0 str0" d="M2478 1027c-101,6 -44,-146 -59,-227 106,-18 46,190 59,227z"/>
  <path class="fil1 str0" d="M2679 964c-21,1 -25,-15 -47,-12 -69,-222 227,-100 47,12z"/>
  <path class="fil2 str0" d="M4319 865c11,-41 27,-76 47,-107 47,20 -4,104 -47,107z"/>
  <path class="fil1 str0" d="M5075 829c3,71 2,137 -59,143 -73,-44 -11,-139 59,-143z"/>
  <g id="_1738465428368">
   <path class="fil3 str2" d="M990 824c0,215 -175,390 -390,390 -215,0 -390,-175 -390,-390 0,-215 175,-390 390,-390 215,0 390,175 390,390z"/>
   <path class="fil4" d="M949 824c0,193 -156,349 -349,349 -193,0 -349,-156 -349,-349 0,-193 156,-349 349,-349 193,0 349,156 349,349z"/>
   <path class="fil5 str2" d="M949 824c0,193 -156,349 -349,349 -193,0 -349,-156 -349,-349 0,-193 156,-349 349,-349 193,0 349,156 349,349z"/>
   <path class="fil6" d="M742 654c0,0 -32,-88 -124,-96 0,0 -74,-3 -88,37 0,0 -6,17 -5,42l-1 65c0,0 -84,9 -166,61 0,0 -52,34 -70,73 0,0 -7,11 7,10 5,0 53,-3 114,-53 0,0 -2,9 12,5 0,0 57,-23 116,-30 0,0 16,63 30,72 0,0 -4,39 13,39 20,0 62,169 91,165 18,-3 81,-173 99,-178 20,-6 32,-46 10,-66 0,0 -1,-55 -38,-145z"/>
   <path class="fil7" d="M293 840c0,0 19,-63 143,-110 0,0 87,-38 152,-23 0,0 12,1 12,21l0 12c0,0 -1,11 -19,14 0,0 -102,12 -164,38 0,0 15,-14 47,-23 0,0 16,-4 8,-4 0,0 -29,-3 -100,44 0,0 -41,30 -79,30z"/>
   <path class="fil8" d="M529 701l0 -70c0,0 -4,-47 35,-57 0,0 47,-20 99,4 0,0 56,28 76,87 0,0 23,55 33,119 0,0 36,38 25,45 -10,6 -29,62 -45,71 -18,10 -62,127 -84,135 -24,9 -69,-155 -93,-153l-10 -34c0,0 0,-14 1,-16 0,0 -15,-29 -22,-65l16 -3c0,0 40,-2 42,-15 0,0 7,-26 -4,-43 0,0 -18,-10 -71,-4z"/>
   <path class="fil6" d="M579 674c-4,8 -13,12 -20,9 -7,-3 -9,-13 -5,-21 4,-8 13,-12 20,-9 7,3 9,13 5,21z"/>
   <path class="fil9" d="M576 673c-4,6 -10,8 -15,6 -5,-3 -5,-10 -2,-16 4,-6 10,-8 15,-6 5,3 5,10 2,16z"/>
   <path class="fil6" d="M674 697c-3,14 -13,24 -22,22 -9,-2 -14,-15 -11,-29 3,-14 13,-24 22,-22 9,2 14,15 11,29z"/>
   <path class="fil9" d="M670 696c-3,11 -10,19 -17,17 -7,-2 -10,-12 -8,-23 3,-11 10,-19 17,-17 7,2 10,12 8,23z"/>
   <path class="fil9" d="M640 1106l4 61c-15,2 -29,3 -45,3l0 0c-25,0 -50,-3 -74,-8 0,-2 0,-5 0,-7 -2,-31 -11,-62 -7,-93 0,-3 1,-6 2,-9 0,-1 0,-1 1,-2 1,-3 2,-6 3,-9 1,-2 1,-4 2,-5 -22,13 -16,43 -16,63 1,20 4,38 6,60 -22,-6 -44,-13 -64,-23 1,-15 4,-30 7,-45 2,-10 1,-20 4,-28 5,-14 15,-26 20,-40 5,-15 3,-34 8,-47 13,-33 47,-51 59,-79 35,6 45,66 71,55 2,5 4,11 7,18 3,9 6,18 10,28 4,9 8,19 12,27 2,3 3,6 5,9 1,2 2,3 3,4 1,2 3,3 4,5 0,0 0,0 0,0 -23,29 -21,63 -21,63z"/>
   <path class="fil9" d="M647 1167c-1,-14 -2,-40 -2,-59 0,-26 13,-46 13,-46l11 -16c-1,1 -1,2 -2,2 1,-1 2,-3 4,-4 30,-39 52,-82 60,-106 4,1 4,11 8,8 8,-8 16,-17 23,-25 4,-4 7,-9 11,-13 7,-9 14,-18 21,-28 10,-14 19,-29 28,-45 33,8 53,33 83,51 10,6 22,11 34,16 -33,139 -149,245 -292,265z"/>
   <path class="fil9" d="M831 806c-25,46 -53,95 -94,125 -4,-12 -14,-21 -21,-30 23,-30 80,-25 79,-79 0,-1 0,-3 0,-4 0,-1 0,-1 -1,-2 0,0 0,0 0,0 0,-1 -1,-1 -1,-2 0,-1 -1,-1 -2,-2 -1,-1 -1,-1 -2,-1 -4,-2 -9,-14 -12,-16 0,0 0,0 0,0 14,-2 38,9 51,10z"/>
   <path class="fil9" d="M639 914c-7,12 -20,32 -28,32 -20,0 -39,-47 -67,-57 -6,-20 8,-25 12,-34 12,3 5,11 4,20 20,19 56,23 79,40l0 0z"/>
   <path class="fil6" d="M612 945c-19,0 -34,-50 -63,-56 -4,-1 -4,-7 -4,-8 -2,-15 8,-19 12,-28 12,3 5,11 4,20 20,19 56,23 79,40 -7,12 -20,32 -28,32zm-171 187c3,2 6,3 10,5 1,-15 4,-30 7,-45 2,-10 1,-20 4,-28 5,-14 15,-26 20,-40 5,-15 3,-34 8,-47 13,-33 47,-51 59,-79 35,6 45,66 71,55 2,5 4,11 7,18 3,9 6,18 10,28 4,9 8,19 12,27 2,3 3,6 5,9 1,2 2,3 3,4 1,2 3,3 4,5 0,0 0,0 0,0 2,-3 5,-6 8,-8 -17,-18 -30,-60 -45,-90 8,-10 19,-18 24,-32 -16,-19 -45,-26 -71,-36 1,-14 -4,-31 -9,-46 0,0 -6,-9 -10,-2 -3,32 -39,41 -12,67 -20,27 -56,50 -67,83 -5,13 1,29 -4,44 -3,9 -16,17 -20,28 -6,19 -10,51 -12,75l0 5zm226 -84c1,-1 1,-2 2,-2 33,-37 55,-85 61,-108 -7,24 -30,68 -60,106 -1,2 -2,3 -4,4zm126 -169c-7,9 -14,19 -21,28 7,-9 14,-18 21,-28z"/>
   <path class="fil10" d="M525 1155c-2,-40 -17,-79 0,-119 -22,14 -16,43 -16,63 1,20 4,38 6,60 3,1 7,2 10,2 0,-2 0,-5 0,-7z"/>
   <path class="fil11" d="M678 1130c0,5 -3,9 -7,9 -4,0 -7,-4 -7,-9 0,-5 3,-9 7,-9 4,0 7,4 7,9z"/>
   <path class="fil11" d="M678 1086c0,5 -3,9 -7,9 -4,0 -7,-4 -7,-9 0,-5 3,-9 7,-9 4,0 7,4 7,9z"/>
   <path class="fil6" d="M738 929c-4,-12 -11,-20 -18,-30 24,-23 76,-24 77,-77 0,-7 -5,-25 -5,-26 0,0 23,8 37,10 -25,46 -50,92 -91,123zm-95 238c1,0 2,0 3,0 -1,-14 -2,-40 -2,-59 0,-26 13,-46 13,-46l11 -16c-1,1 -1,2 -2,2 1,-1 2,-3 4,-4 30,-39 52,-82 60,-106 4,1 4,11 8,8 8,-8 16,-17 23,-25 4,-4 7,-9 11,-13 7,-9 14,-18 21,-28 10,-14 19,-29 28,-45 33,8 53,33 83,51 10,6 22,11 34,16 1,-3 1,-5 2,-8 -8,-4 -17,-8 -24,-12 -32,-19 -57,-47 -93,-52 6,-11 13,-16 13,-31 -28,1 -62,-25 -64,-16 -5,3 15,22 15,45 -4,22 -16,33 -32,42 -16,9 -35,16 -49,28 6,11 15,20 20,32 -14,33 -28,63 -58,106 -3,3 -5,5 -8,8 0,0 0,0 0,0 -23,29 -21,63 -21,63l4 61z"/>
   <path class="fil6" d="M671 1044l-1 2c-1,1 -1,2 -2,2 1,-1 2,-3 4,-4z"/>
  </g>
 </g>
</svg>
